<?xml version="1.0" encoding="UTF-8" standalone="no"?>
<!DOCTYPE svg PUBLIC "-//W3C//DTD SVG 1.1//EN" "http://www.w3.org/Graphics/SVG/1.1/DTD/svg11.dtd">
<svg width="100%" height="100%" viewBox="0 0 1200 1200" version="1.1" xmlns="http://www.w3.org/2000/svg" xmlns:xlink="http://www.w3.org/1999/xlink" xml:space="preserve" xmlns:serif="http://www.serif.com/" style="fill-rule:evenodd;clip-rule:evenodd;stroke-linejoin:round;stroke-miterlimit:2;">
    <g transform="matrix(2.55434,0,0,2.55434,-758.368,-753.089)">
        <circle cx="531.789" cy="507.866" r="213.039" style="fill:rgb(255,175,7);"/>
    </g>
    <g transform="matrix(-1.7392,-1.3825,0.793628,-0.998392,1101.05,2832.91)">
        <path d="M680.172,694.397L760.991,965.948L599.353,965.948L680.172,694.397Z" style="fill:rgb(255,175,7);"/>
    </g>
    <g transform="matrix(1.15208,0,0,1.15208,-205.53,67.4499)">
        <path d="M772.316,332.605C892.081,332.605 989.315,429.839 989.315,549.604C989.315,669.369 892.081,766.602 772.316,766.602C652.551,766.602 555.317,669.369 555.317,549.604C555.317,429.839 652.551,332.605 772.316,332.605ZM772.316,397.704C688.481,397.704 620.417,465.768 620.417,549.604C620.417,633.439 688.481,701.503 772.316,701.503C856.152,701.503 924.215,633.439 924.215,549.604C924.215,465.768 856.152,397.704 772.316,397.704Z" style="fill:white;"/>
    </g>
    <g transform="matrix(0.503472,0,0,0.774921,288.992,54.5141)">
        <rect x="288.716" y="416.247" width="148.965" height="417.103" style="fill:white;"/>
    </g>
    <g transform="matrix(1.15208,0,0,-1.15208,-352.014,1026.9)">
        <path d="M989.312,550.789L924.211,550.789C923.573,634.08 855.756,701.503 772.316,701.503C688.876,701.503 621.059,634.08 620.421,550.789L555.32,550.789C555.959,670.009 652.946,766.602 772.316,766.602C891.686,766.602 988.673,670.009 989.312,550.789Z" style="fill:white;"/>
    </g>
    <g transform="matrix(0.503472,1.27692e-17,-2.43223e-17,-0.760389,142.507,1023.72)">
        <rect x="288.716" y="416.247" width="148.965" height="417.103" style="fill:white;"/>
    </g>
</svg>
